<svg width="15" height="14" viewBox="0 0 15 14" fill="none" xmlns="http://www.w3.org/2000/svg">
<path d="M7.22026 1.40623V12.4505M7.22026 1.40623L7.94035 1.136C9.57899 0.521073 11.407 0.521073 13.0456 1.136C13.4805 1.29921 13.7657 1.69438 13.7657 2.13383V11.1997C13.7657 11.8031 13.1161 12.2158 12.5189 11.9917C11.2184 11.5036 9.76759 11.5036 8.46707 11.9917L7.22924 12.4562C7.22494 12.4578 7.22026 12.4548 7.22026 12.4505M7.22026 1.40623L6.50017 1.136C4.86153 0.521073 3.03354 0.521073 1.3949 1.136C0.959986 1.29921 0.674805 1.69438 0.674805 2.13383V11.1997C0.674805 11.8031 1.32442 12.2158 1.92162 11.9917C3.22213 11.5036 4.67293 11.5036 5.97345 11.9917L7.21128 12.4562C7.21558 12.4578 7.22026 12.4548 7.22026 12.4505" stroke="#3574E3" stroke-width="1.35"/>
</svg>
