<svg width="20" height="18" viewBox="0 0 20 18" fill="none" xmlns="http://www.w3.org/2000/svg">
<path d="M0.75 5.86719C0.75 4.76262 1.64543 3.86719 2.75 3.86719H16.9318C18.0364 3.86719 18.9318 4.76262 18.9318 5.86719V7.05442C18.9318 7.93764 18.3525 8.71628 17.5065 8.97007L10.9903 10.9249C10.2405 11.1499 9.44127 11.1499 8.69152 10.9249L2.17531 8.97007C1.32934 8.71629 0.75 7.93764 0.75 7.05442V5.86719Z" stroke="#3574E3" stroke-width="1.5"/>
<path d="M9.84082 8.54183L9.84082 6.9834" stroke="#3574E3" stroke-width="1.5" stroke-linecap="round" stroke-linejoin="round"/>
<path d="M1.50781 8.54199L1.50781 13.1134C1.50781 15.3225 3.29867 17.1134 5.50781 17.1134H14.1745C16.3836 17.1134 18.1745 15.3225 18.1745 13.1134V8.54199" stroke="#3574E3" stroke-width="1.5"/>
<path d="M12.8702 3.86686V2.75C12.8702 1.64543 11.9747 0.75 10.8702 0.75H8.80957C7.705 0.75 6.80957 1.64543 6.80957 2.75L6.80957 3.86686" stroke="#3574E3" stroke-width="1.5"/>
</svg>
