<svg width="17" height="17" viewBox="0 0 17 17" fill="none" xmlns="http://www.w3.org/2000/svg">
<path fill-rule="evenodd" clip-rule="evenodd" d="M16.6636 0.336431C17.1121 0.785007 17.1121 1.51229 16.6636 1.96087L1.96087 16.6636C1.51229 17.1121 0.785007 17.1121 0.336431 16.6636C-0.112144 16.215 -0.112144 15.4877 0.336431 15.0391L15.0391 0.336431C15.4877 -0.112144 16.215 -0.112144 16.6636 0.336431Z" fill="#132D39"/>
<path fill-rule="evenodd" clip-rule="evenodd" d="M0.336431 0.336431C0.785007 -0.112144 1.51229 -0.112144 1.96087 0.336431L16.6636 15.0391C17.1121 15.4877 17.1121 16.215 16.6636 16.6636C16.215 17.1121 15.4877 17.1121 15.0391 16.6636L0.336431 1.96087C-0.112144 1.51229 -0.112144 0.785007 0.336431 0.336431Z" fill="#132D39"/>
</svg>
