<svg width="18" height="18" viewBox="0 0 18 18" fill="none" xmlns="http://www.w3.org/2000/svg">
<path d="M2.90918 2.9541C2.90918 2.12567 3.58075 1.4541 4.40918 1.4541H7.22736C8.05579 1.4541 8.72736 2.12567 8.72736 2.9541V7.9541C8.72736 8.78253 8.05579 9.4541 7.22736 9.4541H2.90918V2.9541Z" stroke="#3574E3" stroke-width="1.5"/>
<path d="M8.72729 2.90918H12.5817C13.399 2.90918 13.8711 3.83638 13.3904 4.49735L12.4919 5.73284C11.9819 6.43414 11.9819 7.38422 12.4919 8.08552L13.3904 9.32101C13.8711 9.98198 13.399 10.9092 12.5817 10.9092H9.7273C9.17501 10.9092 8.72729 10.4615 8.72729 9.90918V2.90918Z" stroke="#3574E3" stroke-width="1.5"/>
<path d="M2.90918 16.0001L2.90918 2.90918" stroke="#3574E3" stroke-width="1.5" stroke-linecap="round" stroke-linejoin="round"/>
</svg>
