<svg width="17" height="17" viewBox="0 0 17 17" fill="none" xmlns="http://www.w3.org/2000/svg">
<path d="M7.41667 3.3457C7.41667 2.79342 6.96648 2.33802 6.42039 2.42056C5.45581 2.56635 4.53074 2.92275 3.71287 3.46924C2.61654 4.20178 1.76205 5.24297 1.25747 6.46115C0.752886 7.67932 0.620863 9.01976 0.878098 10.313C1.13533 11.6062 1.77027 12.7941 2.70262 13.7264C3.63497 14.6588 4.82286 15.2937 6.11606 15.5509C7.40927 15.8082 8.74972 15.6762 9.96789 15.1716C11.1861 14.667 12.2273 13.8125 12.9598 12.7162C13.5063 11.8983 13.8627 10.9732 14.0085 10.0086C14.091 9.46256 13.6356 9.01237 13.0833 9.01237H8.91667C8.08824 9.01237 7.41667 8.3408 7.41667 7.51237V3.3457Z" stroke="#3371DD" stroke-width="1.5"/>
<path d="M9.91667 1.67871C9.91667 1.12643 10.3676 0.670001 10.9118 0.764217C11.3352 0.837515 11.7501 0.957539 12.149 1.12275C12.8567 1.4159 13.4998 1.84558 14.0415 2.38725C14.5831 2.92893 15.0128 3.57199 15.306 4.27972C15.4712 4.67857 15.5912 5.09356 15.6645 5.51693C15.7587 6.06112 15.3023 6.51204 14.75 6.51204L10.9167 6.51204C10.3644 6.51204 9.91667 6.06433 9.91667 5.51204V1.67871Z" stroke="#3371DD" stroke-width="1.5"/>
</svg>
