<svg width="26" height="19" viewBox="0 0 26 19" fill="none" xmlns="http://www.w3.org/2000/svg">
<path fill-rule="evenodd" clip-rule="evenodd" d="M5.88672 9.4996C5.88672 8.79059 6.4358 8.21582 7.11313 8.21582L24.7735 8.21582C25.4508 8.21582 25.9999 8.79059 25.9999 9.4996C25.9999 10.2086 25.4508 10.7834 24.7735 10.7834L7.11313 10.7834C6.4358 10.7834 5.88672 10.2086 5.88672 9.4996Z" fill="#132D39"/>
<path fill-rule="evenodd" clip-rule="evenodd" d="M0 1.28378C0 0.57477 0.549085 0 1.22642 0H24.7736C25.4509 0 26 0.57477 26 1.28378C26 1.9928 25.4509 2.56757 24.7736 2.56757H1.22642C0.549085 2.56757 0 1.9928 0 1.28378Z" fill="#132D39"/>
<path fill-rule="evenodd" clip-rule="evenodd" d="M0 17.7164C0 17.0074 0.549085 16.4326 1.22642 16.4326H24.7736C25.4509 16.4326 26 17.0074 26 17.7164C26 18.4254 25.4509 19.0002 24.7736 19.0002H1.22642C0.549085 19.0002 0 18.4254 0 17.7164Z" fill="#132D39"/>
</svg>
