<svg width="124" height="42" viewBox="0 0 124 42" fill="none" xmlns="http://www.w3.org/2000/svg">
<path d="M53.0727 37.2065H64.6659V41.6209H47.3555V19.5488H53.0727V37.2065ZM73.2492 37.5218C74.3715 37.5218 75.642 37.3116 77.0607 36.8912V34.9993H72.4552C72.1376 34.9993 71.8729 35.1044 71.6611 35.3146C71.4494 35.5248 71.3435 35.7876 71.3435 36.1029V36.4182C71.3435 36.7335 71.4494 36.9963 71.6611 37.2065C71.8729 37.4167 72.1376 37.5218 72.4552 37.5218H73.2492ZM67.3732 25.2245C71.2482 24.8041 74.7421 24.5939 77.8548 24.5939C79.2947 24.5939 80.4487 25.0248 81.3169 25.8867C82.185 26.7485 82.6191 27.8942 82.6191 29.3236V41.6209H77.696L77.3783 40.0443C76.3831 40.696 75.3561 41.1795 74.2974 41.4948C73.2598 41.7891 72.3811 41.9362 71.6611 41.9362H70.5494C69.1095 41.9362 67.9555 41.5053 67.0873 40.6434C66.2192 39.7816 65.7851 38.6359 65.7851 37.2065V35.7876C65.7851 34.3581 66.2192 33.2125 67.0873 32.3506C67.9555 31.4888 69.1095 31.0578 70.5494 31.0578H77.0607V29.7966C77.0607 29.4813 76.9548 29.2185 76.7431 29.0083C76.5313 28.7981 76.2667 28.693 75.949 28.693C74.5727 28.693 73.0481 28.756 71.3753 28.8822C69.7236 29.0083 68.3896 29.1029 67.3732 29.1659V25.2245ZM96.7447 29.9542C96.7447 29.6389 96.6388 29.3762 96.4271 29.1659C96.2153 28.9557 95.9506 28.8506 95.633 28.8506H94.839C93.9496 28.8506 93.1767 28.8927 92.5203 28.9768C91.8851 29.0608 91.3875 29.1239 91.0275 29.1659V37.3641H95.4742C96.3212 37.3641 96.7447 36.9437 96.7447 36.1029V29.9542ZM91.0275 25.2245C93.0814 24.8041 94.8813 24.5939 96.4271 24.5939H97.5387C98.9786 24.5939 100.133 25.0248 101.001 25.8867C101.869 26.7485 102.303 27.8942 102.303 29.3236V36.5759C102.303 38.1524 101.848 39.3927 100.937 40.2966C100.048 41.1795 98.8092 41.6209 97.2211 41.6209H85.4691V19.5488H91.0275V25.2245ZM104.53 37.2065C108.829 37.5218 112.217 37.6795 114.694 37.6795C115.012 37.6795 115.276 37.5744 115.488 37.3641C115.7 37.1539 115.806 36.8912 115.806 36.5759V35.4723H108.977C107.537 35.4723 106.383 35.0413 105.515 34.1795C104.647 33.3176 104.213 32.172 104.213 30.7425V29.6389C104.213 28.2095 104.647 27.0638 105.515 26.202C106.383 25.3401 107.537 24.9092 108.977 24.9092H119.776V29.0083H110.883C110.565 29.0083 110.3 29.1134 110.089 29.3236C109.877 29.5338 109.771 29.7966 109.771 30.1119C109.771 30.4272 109.877 30.69 110.089 30.9002C110.3 31.1104 110.565 31.2155 110.883 31.2155H116.6C118.04 31.2155 119.194 31.6464 120.062 32.5083C120.93 33.3701 121.364 34.5158 121.364 35.9452V37.2065C121.364 38.6359 120.93 39.7816 120.062 40.6434C119.194 41.5053 118.04 41.9362 116.6 41.9362C112.852 41.9362 108.829 41.726 104.53 41.3056V37.2065Z" fill="black"/>
<path d="M35.0757 33.8361L30.4621 27.0541L25.9887 20.3277L25.736 19.9468C24.538 18.0608 23.9578 15.8218 23.9578 13.4249V4.7846C23.9578 2.97292 25.3617 1.96025 25.3617 1.15204C25.3617 0.343694 24.7065 0 23.8924 0H12.0257C11.2116 0 10.5471 0.36236 10.5471 1.17058C10.5471 1.97879 11.979 3.04733 11.979 4.83114V13.4249C11.979 15.8218 11.2958 18.0515 10.0979 19.9468L9.88265 20.2999L5.456 27.0541L0.851738 33.8269C0.308729 34.663 0 35.7035 0 36.7719C0 39.3733 1.52548 41.6216 5.91465 41.6216H30.0222C34.4207 41.6216 35.9367 39.3733 35.9367 36.7719C35.9273 35.7035 35.6186 34.6723 35.0757 33.8361ZM32.3057 37.9983C31.8939 38.3885 31.2199 38.6487 30.0128 38.6487H5.90525C4.7073 38.6487 3.95873 38.37 3.54683 37.9797C3.29426 37.7382 2.98527 37.348 2.98527 36.7626C2.98527 36.2981 3.11639 35.8336 3.35041 35.462L7.936 28.7264L7.9454 28.7078L7.9548 28.6892L12.3626 21.9535L12.6434 21.4985C14.1126 19.1572 14.9642 16.37 14.9642 13.4249V6.51278C14.9642 5.94609 14.9736 4.8498 14.8707 4.45023C14.4215 2.76859 14.9736 2.97292 15.7972 2.97292H20.1957C21.0193 2.97292 21.4778 2.78714 21.0475 4.43157C20.9538 4.79393 20.9538 5.89022 20.9538 6.50332V13.4155C20.9538 16.3142 21.6839 19.1106 23.1904 21.4983C23.2886 21.6542 23.3885 21.809 23.4899 21.9629L27.9633 28.6613L27.9728 28.68L27.9821 28.6985L32.5678 35.4341C32.8018 35.8057 32.9328 36.2702 32.9328 36.7347C32.9327 37.3294 32.5584 37.7567 32.3057 37.9983Z" fill="#0B6DDD"/>
<path d="M30.6215 35.1929L29.4048 33.3534L28.2912 31.6625L24.501 25.921L24.3981 25.763C24.37 25.726 24.3325 25.6887 24.3044 25.6516L24.2952 25.6329L23.0597 23.7842H12.8216L11.7266 25.4472L11.7173 25.4565C11.6985 25.4844 11.6704 25.5122 11.6517 25.5401L7.63699 31.644L6.22382 33.7993L6.16767 33.883L6.13019 33.9387L6.08343 34.013L5.29725 35.2024C5.15686 35.3974 5.08203 35.6482 5.08203 35.9084C5.08203 36.6052 5.65286 37.1626 6.34541 37.1626H29.5827C30.2845 37.1626 30.8461 36.5959 30.8461 35.9084C30.8461 35.6761 30.7899 35.4531 30.6683 35.2673C30.6495 35.2393 30.6403 35.2208 30.6215 35.1929ZM22.2737 28.7732C22.1333 28.6339 22.0585 28.4386 22.0585 28.2436C22.0585 28.0486 22.1426 27.8534 22.2737 27.714C22.4141 27.5746 22.6106 27.5004 22.7978 27.5004C22.9944 27.5004 23.1909 27.5746 23.322 27.714C23.4624 27.8534 23.5372 28.0486 23.5372 28.2436C23.5372 28.4386 23.453 28.6339 23.322 28.7732C23.2531 28.8414 23.1714 28.8954 23.0814 28.9321C22.9914 28.9687 22.895 28.9874 22.7978 28.9869C22.6106 28.9869 22.4141 28.9033 22.2737 28.7732ZM25.6428 34.0409L23.4436 30.7056C23.2189 30.3619 23.3124 29.8974 23.6588 29.6744C23.7812 29.5951 23.9244 29.553 24.0706 29.5534C24.3139 29.5534 24.5477 29.6744 24.6789 29.8881L26.8781 33.2232C27.1026 33.567 27.0089 34.0315 26.6629 34.2545C26.5319 34.3382 26.3915 34.3754 26.2604 34.3754C26.0265 34.3754 25.7832 34.2545 25.6428 34.0409Z" fill="#0B6DDD"/>
<path d="M11.6512 25.5488C11.3144 26.0506 11.6233 25.586 11.6512 25.5488V25.5488Z" fill="#0B6DDD"/>
<path d="M51.8374 11.8559C50.9818 11.8559 50.269 11.784 49.6989 11.6402C49.1289 11.4962 48.6728 11.2671 48.3306 10.9528C47.9756 10.616 47.7236 10.1866 47.6035 9.71398C47.4609 9.20376 47.3896 8.57565 47.3896 7.82966V4.14867C47.3896 3.41461 47.4609 2.78945 47.6035 2.27317C47.7229 1.79882 47.975 1.36763 48.3306 1.02931C48.6723 0.71383 49.1284 0.484449 49.6989 0.34117C50.2695 0.197806 50.9823 0.126125 51.8374 0.126125H56.2658C57.1318 0.126125 57.8502 0.197806 58.4212 0.34117C58.9922 0.484449 59.4484 0.71383 59.7896 1.02931C60.1457 1.36876 60.3977 1.80124 60.5168 2.27683C60.6588 2.7931 60.7298 3.41827 60.7298 4.15232V7.83331C60.7298 8.57729 60.6588 9.2054 60.5168 9.71764C60.3962 10.1901 60.1443 10.6194 59.7896 10.9564C59.4475 11.2718 58.9913 11.5009 58.4212 11.6438C57.8513 11.7867 57.1328 11.8573 56.2658 11.8557L51.8374 11.8559ZM58.132 4.2676C58.1392 3.96151 58.1086 3.6557 58.0411 3.35697C57.99 3.13754 57.8807 2.93569 57.7245 2.77238C57.5563 2.61306 57.3455 2.50533 57.1172 2.46211C56.8046 2.3997 56.4862 2.37102 56.1675 2.37659H51.9572C51.6212 2.36948 51.2855 2.39815 50.9557 2.46211C50.7275 2.50519 50.5169 2.61296 50.3491 2.77238C50.1951 2.9344 50.0922 3.13768 50.0532 3.3571C49.9978 3.65761 49.973 3.96291 49.9793 4.26836V7.72472C49.9729 8.03908 49.9976 8.3533 50.0532 8.66284C50.0897 8.88309 50.1929 9.08707 50.3491 9.24757C50.5182 9.40168 50.7291 9.50331 50.9557 9.53993C51.2863 9.5967 51.6217 9.62162 51.9572 9.61434H56.1646C56.4828 9.62019 56.8009 9.59527 57.1142 9.53993C57.3412 9.51034 57.5529 9.4099 57.7186 9.25311C57.8855 9.09515 57.9982 8.88925 58.0411 8.66436C58.109 8.35587 58.1396 8.04041 58.132 7.72472V4.2676ZM75.0447 12.1081C74.7838 12.1108 74.5246 12.0677 74.2788 11.9807C74.0316 11.8882 73.8062 11.7463 73.6164 11.5639L65.0626 3.60582V11.8528H62.6356V1.07207C62.6356 0.709836 62.7648 0.440221 63.0233 0.263224C63.2818 0.0862266 63.6172 -0.00126285 64.0295 0.00075517C64.2832 -0.00622376 64.5359 0.0352235 64.7738 0.122845C64.9531 0.192313 65.1167 0.296255 65.2554 0.428701L73.8785 8.64191V0.259566H76.3569V11.0359C76.3569 11.4222 76.2363 11.6972 75.9952 11.8609C75.751 12.0249 75.4347 12.1081 75.0447 12.1081ZM82.6214 11.8559C81.7583 11.8559 81.039 11.784 80.4636 11.6402C79.8882 11.4963 79.4285 11.2672 79.0845 10.9528C78.7271 10.6169 78.4729 10.1875 78.3513 9.71411C78.2075 9.20372 78.1356 8.57557 78.1356 7.82966V4.14867C78.1356 3.41461 78.2075 2.78945 78.3513 2.27317C78.4722 1.79803 78.7264 1.3667 79.0845 1.02931C79.43 0.71383 79.8907 0.484449 80.4665 0.34117C81.0424 0.19789 81.7617 0.126209 82.6243 0.126125H90.8405V2.34531H82.6214C82.3078 2.33819 81.9945 2.37018 81.6889 2.44054C81.4736 2.48878 81.2746 2.5913 81.1109 2.7382C80.9602 2.88872 80.8578 3.08028 80.8168 3.28861C80.761 3.57203 80.7359 3.86057 80.7421 4.1493V4.94011H90.771V7.02321H80.739V7.84895C80.7326 8.14337 80.7576 8.43763 80.8138 8.72679C80.8491 8.93952 80.9521 9.13542 81.1077 9.28578C81.263 9.43583 81.4629 9.53224 81.6777 9.56074C81.9879 9.61712 82.3031 9.64209 82.6184 9.63515H90.8405V11.8551L82.6214 11.8559ZM96.7866 11.8559C95.9361 11.8559 95.2274 11.784 94.6607 11.6402C94.0941 11.4964 93.6406 11.2674 93.3004 10.953C92.9474 10.6156 92.697 10.1865 92.5776 9.71474C92.4359 9.20451 92.3651 8.57658 92.3651 7.83092V0.126125H94.9666V7.7454C94.9585 8.05025 94.9959 8.35459 95.0777 8.64821C95.1414 8.86714 95.2616 9.06579 95.4262 9.22461C95.6061 9.38385 95.8266 9.49088 96.0637 9.534C96.386 9.5963 96.7137 9.62493 97.0417 9.61951H100.939C101.267 9.62498 101.595 9.59632 101.917 9.534C102.154 9.49088 102.375 9.38385 102.555 9.22461C102.72 9.06333 102.841 8.86147 102.903 8.63939C102.983 8.34185 103.019 8.03411 103.01 7.72611V0.126125H105.578V7.83092C105.578 8.57456 105.507 9.2025 105.365 9.71474C105.246 10.1865 104.996 10.6155 104.643 10.953C104.302 11.2684 103.849 11.4974 103.283 11.6402C102.716 11.783 102.002 11.8548 101.14 11.8559H96.7866ZM110.212 8.50178V11.8559H107.611V0.126125H116.954C117.787 0.126125 118.483 0.192046 119.041 0.32389C119.6 0.455734 120.051 0.67368 120.393 0.977728C120.742 1.29451 120.994 1.70295 121.118 2.15575C121.26 2.63713 121.332 3.22193 121.332 3.91016V4.92447C121.332 5.62363 121.264 6.20276 121.127 6.66185C121.008 7.09182 120.76 7.47571 120.416 7.76243C120.08 8.03764 119.633 8.22977 119.073 8.33883C118.514 8.44788 117.807 8.5022 116.952 8.50178H110.212ZM118.734 3.96503C118.734 3.35281 118.599 2.93537 118.331 2.71272C118.063 2.49015 117.581 2.37886 116.885 2.37886H110.212V6.26985H116.919C117.604 6.26985 118.078 6.16673 118.34 5.96047C118.602 5.75421 118.734 5.35061 118.734 4.74966V3.96503Z" fill="black"/>
</svg>
