<svg width="139" height="32" viewBox="0 0 139 32" fill="none" xmlns="http://www.w3.org/2000/svg">
<g clip-path="url(#clip0_40000001_3405)">
<path d="M15.1472 25.0918L14.5636 25.6754C14.4809 25.7581 14.4809 25.8923 14.5636 25.975L15.1472 26.5586C15.2299 26.6413 15.3641 26.6413 15.4468 26.5586L16.0304 25.975C16.1131 25.8923 16.1131 25.7581 16.0304 25.6754L15.4468 25.0918C15.3641 25.0091 15.2299 25.0091 15.1472 25.0918Z" fill="url(#paint0_linear_40000001_3405)"/>
<path d="M13.1365 27.0217L10.9252 29.233C10.8425 29.3157 10.8425 29.4499 10.9252 29.5326L13.1366 31.744C13.2193 31.8267 13.3534 31.8267 13.4362 31.744L15.6475 29.5326C15.7303 29.4499 15.7303 29.3157 15.6475 29.233L13.4362 27.0217C13.3534 26.9389 13.2193 26.9389 13.1365 27.0217Z" fill="url(#paint1_linear_40000001_3405)"/>
<path d="M8.07516 27.2996L7.52458 27.8502C7.44183 27.9329 7.44183 28.0671 7.52458 28.1498L8.07516 28.7004C8.15791 28.7832 8.29206 28.7832 8.3748 28.7004L8.92539 28.1498C9.00813 28.0671 9.00813 27.9329 8.92539 27.8502L8.3748 27.2996C8.29206 27.2168 8.15791 27.2168 8.07516 27.2996Z" fill="url(#paint2_linear_40000001_3405)"/>
<path d="M10.071 22.9688L8.42594 24.6139C8.3432 24.6966 8.3432 24.8307 8.42594 24.9135L10.071 26.5585C10.1537 26.6413 10.2879 26.6413 10.3706 26.5585L12.0156 24.9135C12.0984 24.8307 12.0984 24.6966 12.0156 24.6139L10.3706 22.9688C10.2879 22.8861 10.1537 22.8861 10.071 22.9688Z" fill="url(#paint3_linear_40000001_3405)"/>
<path d="M16.9482 27.8588L16.7849 28.0221C16.7021 28.1048 16.7021 28.239 16.7848 28.3217L16.9481 28.4851C17.0308 28.5678 17.165 28.5678 17.2477 28.4851L17.411 28.3218C17.4938 28.2391 17.4938 28.1049 17.4111 28.0222L17.2478 27.8589C17.1651 27.7761 17.0309 27.7761 16.9482 27.8588Z" fill="url(#paint4_linear_40000001_3405)"/>
<path d="M18.1336 24.1252L17.6459 24.6129C17.5632 24.6956 17.5632 24.8298 17.6459 24.9125L18.1336 25.4002C18.2163 25.4829 18.3505 25.4829 18.4332 25.4002L18.9209 24.9125C19.0036 24.8298 19.0036 24.6956 18.9209 24.6129L18.4332 24.1252C18.3505 24.0425 18.2163 24.0425 18.1336 24.1252Z" fill="url(#paint5_linear_40000001_3405)"/>
<path d="M19.5852 25.7102L18.7372 26.5582C18.6545 26.6409 18.6545 26.7751 18.7372 26.8578L19.5852 27.7058C19.6679 27.7885 19.8021 27.7885 19.8848 27.7058L20.7328 26.8578C20.8156 26.7751 20.8156 26.6409 20.7328 26.5582L19.8848 25.7102C19.8021 25.6275 19.6679 25.6275 19.5852 25.7102Z" fill="url(#paint6_linear_40000001_3405)"/>
<path d="M26.6451 12.5593L14.2503 0.344601C14.0256 0.122708 13.7221 -0.00118257 13.4063 8.50931e-06C13.0905 0.00119959 12.7879 0.127376 12.5649 0.350957L0.353328 12.5625C0.186013 12.7301 0.0721284 12.9436 0.0260599 13.1759C-0.0200086 13.4082 0.0038056 13.6489 0.0944944 13.8677C0.185183 14.0865 0.338678 14.2735 0.53559 14.4051C0.732503 14.5367 0.963998 14.607 1.20084 14.6071H5.66826C5.69757 14.6072 5.72656 14.6132 5.75357 14.6245C5.78057 14.6359 5.80507 14.6525 5.82564 14.6734C5.84622 14.6943 5.86246 14.719 5.87345 14.7462C5.88444 14.7733 5.88995 14.8024 5.88967 14.8317V23.9943C5.88967 24.0529 5.91286 24.109 5.95415 24.1505C5.99544 24.192 6.05149 24.2154 6.11003 24.2157H7.62813C7.68683 24.2155 7.74311 24.1923 7.78492 24.1511L10.0742 21.8554C10.0949 21.8341 10.1196 21.8172 10.1469 21.8057C10.1742 21.7941 10.2035 21.7882 10.2332 21.7882C10.2628 21.7882 10.2921 21.7941 10.3194 21.8057C10.3467 21.8172 10.3714 21.8341 10.3921 21.8554L12.6835 24.1479C12.7041 24.1685 12.7286 24.1848 12.7555 24.1958C12.7824 24.2069 12.8112 24.2126 12.8403 24.2125H17.1435C17.2019 24.2125 17.258 24.1893 17.2993 24.1479L18.1468 23.3004C18.1674 23.2791 18.1921 23.2622 18.2194 23.2507C18.2467 23.2391 18.276 23.2332 18.3057 23.2332C18.3353 23.2332 18.3646 23.2391 18.3919 23.2507C18.4192 23.2622 18.4439 23.2791 18.4646 23.3004L19.3121 24.1479C19.3538 24.1892 19.4102 24.2124 19.4689 24.2125H20.9022C20.9609 24.2125 21.0173 24.1892 21.0588 24.1477C21.1003 24.1062 21.1236 24.0499 21.1236 23.9911V14.8317C21.1236 14.7732 21.1468 14.717 21.1881 14.6755C21.2294 14.634 21.2854 14.6106 21.344 14.6103H25.8125C26.0498 14.6095 26.2816 14.5382 26.4783 14.4053C26.6749 14.2725 26.8276 14.0841 26.9169 13.8642C27.0062 13.6442 27.028 13.4027 26.9796 13.1704C26.9312 12.938 26.8148 12.7253 26.6451 12.5593ZM7.61859 22.6786C7.54744 22.8429 7.41637 22.9739 7.25204 23.0451C7.1906 23.0684 7.00627 22.9551 6.948 22.8968C6.88575 22.8336 6.8355 22.7597 6.79969 22.6786C6.77638 22.6171 6.88973 22.4317 6.948 22.3745C7.01129 22.3124 7.08521 22.2622 7.16623 22.2262C7.22874 22.2029 7.41307 22.3162 7.47028 22.3745C7.52748 22.4328 7.6419 22.6171 7.61859 22.6786ZM9.63142 20.7335C9.57941 20.832 9.51098 20.9208 9.42908 20.9963L9.2172 21.2081C9.14253 21.2858 9.05555 21.3506 8.95977 21.3999C8.89727 21.4242 8.69281 21.2939 8.61018 21.2071L8.3983 20.9952C8.3198 20.919 8.25463 20.8302 8.20549 20.7325C8.18218 20.67 8.31143 20.4655 8.3983 20.3829L8.61018 20.171C8.68714 20.0934 8.77579 20.0283 8.8729 19.9782C8.93541 19.9549 9.13987 20.0894 9.2225 20.171L9.43438 20.3829C9.51595 20.4666 9.65049 20.671 9.62613 20.7335H9.63142ZM12.3752 20.4157C12.3519 20.4772 12.3307 20.5301 12.3297 20.5312C12.3286 20.5322 12.2756 20.5534 12.2131 20.5778C12.1506 20.6022 12.0129 20.5333 12.0108 20.5312C12.0087 20.5291 11.9886 20.4772 11.9652 20.4157C11.9419 20.3543 12.0097 20.2144 12.0108 20.2134C12.0119 20.2123 12.0648 20.1911 12.1273 20.1668C12.1898 20.1424 12.3276 20.2113 12.3297 20.2134C12.3318 20.2155 12.3954 20.3532 12.3699 20.4157H12.3752ZM15.4665 22.1563C15.4171 22.2539 15.352 22.3426 15.2737 22.419L14.8563 22.8364C14.78 22.9148 14.6913 22.98 14.5936 23.0292C14.5321 23.0525 14.3266 22.9233 14.245 22.8364L13.8276 22.419C13.7494 22.3426 13.6842 22.2539 13.6348 22.1563C13.6105 22.0938 13.7408 21.8893 13.8276 21.8067L14.245 21.3893C14.321 21.3106 14.4099 21.2454 14.5078 21.1965C14.5703 21.1732 14.7747 21.3024 14.8563 21.3893L15.2737 21.8067C15.351 21.8893 15.4856 22.0938 15.4612 22.1563H15.4665ZM17.5132 20.4337C17.4421 20.598 17.311 20.7291 17.1467 20.8003C17.0842 20.8236 16.8999 20.7092 16.8416 20.652C16.7798 20.5884 16.7296 20.5146 16.6933 20.4337C16.67 20.3712 16.7833 20.1869 16.8416 20.1286C16.9055 20.0673 16.9793 20.0171 17.0598 19.9803C17.1223 19.957 17.3067 20.0714 17.3649 20.1286C17.4232 20.1858 17.5313 20.3712 17.5079 20.4337H17.5132ZM18.4444 22.5811C18.4133 22.611 18.374 22.6311 18.3315 22.6389C18.289 22.6467 18.2452 22.6418 18.2054 22.6249C18.1657 22.608 18.1318 22.5797 18.108 22.5437C18.0841 22.5076 18.0714 22.4654 18.0714 22.4222C18.0714 22.379 18.0841 22.3367 18.108 22.3007C18.1318 22.2646 18.1657 22.2364 18.2054 22.2195C18.2452 22.2025 18.289 22.1977 18.3315 22.2054C18.374 22.2132 18.4133 22.2333 18.4444 22.2633C18.4658 22.284 18.4827 22.309 18.494 22.3365C18.5054 22.364 18.511 22.3936 18.5105 22.4233C18.51 22.4531 18.5034 22.4825 18.4911 22.5096C18.4789 22.5367 18.4612 22.5611 18.4392 22.5811H18.4444ZM20.6692 23.3841C20.6332 23.4651 20.5829 23.539 20.5208 23.6023C20.4577 23.6646 20.3837 23.7148 20.3026 23.7507C20.2401 23.774 20.0558 23.6606 19.9986 23.6023C19.9365 23.539 19.8862 23.4651 19.8503 23.3841C19.8259 23.3216 19.9403 23.1373 19.9986 23.079C20.0623 23.0174 20.1361 22.9673 20.2168 22.9307C20.2782 22.9074 20.4636 23.0218 20.5208 23.079C20.578 23.1362 20.6903 23.3216 20.666 23.3841H20.6692Z" fill="url(#paint7_linear_40000001_3405)"/>
<path d="M38.7004 24.3024C37.4751 24.3024 36.4542 24.2003 35.6377 23.9962C34.8213 23.7921 34.168 23.4655 33.6779 23.0163C33.1707 22.5388 32.8096 21.9271 32.6365 21.2524C32.4317 20.5257 32.3296 19.6312 32.3303 18.569V13.3271C32.3303 12.2819 32.4324 11.3916 32.6365 10.6564C32.8077 9.9773 33.1689 9.36103 33.6779 8.87984C34.168 8.43066 34.8213 8.10402 35.6377 7.89991C36.4542 7.6958 37.4751 7.59375 38.7004 7.59375H45.0451C46.286 7.59375 47.315 7.6958 48.1321 7.89991C48.9493 8.10402 49.6025 8.43066 50.092 8.87984C50.6005 9.36132 50.9617 9.97747 51.1334 10.6564C51.3368 11.3916 51.4388 12.2819 51.4395 13.3271V18.569C51.4395 19.6284 51.3375 20.5228 51.1334 21.2524C50.9598 21.9269 50.5988 22.5385 50.092 23.0163C49.6018 23.4655 48.9485 23.7921 48.1321 23.9962C47.3157 24.2003 46.2867 24.3024 45.0451 24.3024H38.7004ZM47.7158 13.4966C47.7248 13.0602 47.6796 12.6242 47.5812 12.1989C47.5076 11.8857 47.351 11.5981 47.1278 11.3662C46.8864 11.1386 46.5844 10.9856 46.2581 10.9255C45.8103 10.8367 45.3542 10.7965 44.8978 10.8058H38.872C38.3912 10.7955 37.9107 10.8367 37.4387 10.9287C37.1123 10.9885 36.8102 11.1416 36.5689 11.3694C36.3469 11.5986 36.1976 11.8883 36.1399 12.2021C36.0604 12.6299 36.0249 13.0648 36.0339 13.4998V18.4228C36.0247 18.8701 36.0602 19.3173 36.1399 19.7576C36.1938 20.0727 36.3436 20.3635 36.5689 20.5903C36.8124 20.8103 37.1146 20.955 37.4387 21.0066C37.912 21.0878 38.392 21.1233 38.872 21.1126H44.8978C45.3536 21.1214 45.8092 21.086 46.2581 21.0066C46.582 20.964 46.8842 20.8204 47.1217 20.5962C47.3593 20.3719 47.5201 20.0785 47.5812 19.7576C47.6799 19.3197 47.7251 18.8715 47.7158 18.4228V13.4966Z" fill="#232323"/>
<path d="M71.8453 24.669C71.4739 24.6727 71.1049 24.6107 70.7552 24.4857C70.4028 24.3526 70.0818 24.1481 69.8123 23.885L57.6368 12.4203V24.3024H54.1821V8.7697C54.1821 8.24707 54.3661 7.85863 54.7341 7.60438C55.102 7.35013 55.5795 7.22336 56.1664 7.22406C56.5272 7.21264 56.8869 7.27091 57.2257 7.39568C57.4797 7.49701 57.7109 7.6479 57.9059 7.83956L70.1799 19.6718V7.59485H73.7077V23.1265C73.7077 23.6816 73.536 24.0775 73.1928 24.3141C72.8506 24.5514 72.4004 24.669 71.8453 24.669Z" fill="#232323"/>
<path d="M82.7963 24.3024C81.5716 24.3024 80.5511 24.2003 79.7347 23.9962C78.9182 23.7921 78.2646 23.4655 77.7737 23.0163C77.2669 22.5387 76.9062 21.927 76.7334 21.2524C76.5286 20.5257 76.4265 19.6312 76.4272 18.569V13.3271C76.4272 12.2819 76.5293 11.3916 76.7334 10.6564C76.9043 9.97739 77.2651 9.36112 77.7737 8.87984C78.2646 8.43066 78.9182 8.10402 79.7347 7.89991C80.5511 7.6958 81.5716 7.59375 82.7963 7.59375H94.458V10.7539H82.7963C82.3513 10.7438 81.9068 10.7894 81.4731 10.8895C81.1679 10.958 80.8855 11.1039 80.6531 11.3133C80.4391 11.5271 80.2941 11.8001 80.2368 12.0972C80.1571 12.5007 80.1216 12.9117 80.1309 13.3229V14.449H94.3595V17.4153H80.1256V18.5912C80.1155 19.0105 80.151 19.4297 80.2315 19.8413C80.288 20.1359 80.4281 20.4081 80.6351 20.6252C80.8633 20.8374 81.1488 20.9777 81.4562 21.0289C81.8964 21.1091 82.3436 21.1446 82.791 21.1348H94.458V24.3024H82.7963Z" fill="#232323"/>
<path d="M103.154 24.3024C101.93 24.3024 100.909 24.2003 100.093 23.9962C99.2762 23.7921 98.6226 23.4655 98.1317 23.0163C97.6249 22.5385 97.2639 21.9269 97.0903 21.2524C96.8855 20.5257 96.7835 19.6312 96.7842 18.569V7.59375H100.535V18.4472C100.523 18.8814 100.577 19.315 100.694 19.7332C100.787 20.0462 100.96 20.3293 101.197 20.5543C101.457 20.7817 101.775 20.9341 102.115 20.995C102.579 21.0837 103.051 21.1246 103.524 21.1168H109.139C109.611 21.1245 110.083 21.0837 110.548 20.995C110.888 20.9341 111.206 20.7817 111.466 20.5543C111.705 20.3258 111.878 20.0381 111.968 19.7205C112.085 19.2981 112.139 18.8609 112.128 18.4228V7.59375H115.828V18.569C115.828 19.6284 115.725 20.5228 115.52 21.2524C115.347 21.9268 114.987 22.5384 114.48 23.0163C113.99 23.4655 113.337 23.7921 112.52 23.9962C111.704 24.2003 110.675 24.3024 109.433 24.3024H103.154Z" fill="#232323"/>
<path d="M122.336 19.5245V24.3024H118.613V7.59375H131.989C133.181 7.59375 134.177 7.68768 134.977 7.87555C135.778 8.06341 136.423 8.37381 136.913 8.80675C137.413 9.25664 137.774 9.83989 137.954 10.488C138.158 11.1745 138.26 12.0075 138.26 12.9871V14.4289C138.26 15.4261 138.162 16.251 137.966 16.9036C137.795 17.5178 137.441 18.0649 136.95 18.4715C136.468 18.8635 135.827 19.1372 135.026 19.2925C134.225 19.4479 133.213 19.5253 131.989 19.5245H122.336ZM134.537 13.0623C134.537 12.1901 134.345 11.5954 133.96 11.2783C133.576 10.9612 132.887 10.8012 131.893 10.7984H122.339V16.3411H131.942C132.923 16.3411 133.601 16.1942 133.976 15.9004C134.351 15.6066 134.539 15.0317 134.54 14.1757L134.537 13.0623Z" fill="#232323"/>
</g>
<defs>
<linearGradient id="paint0_linear_40000001_3405" x1="15.2954" y1="30.8949" x2="15.2954" y2="2.47689" gradientUnits="userSpaceOnUse">
<stop stop-color="#0A6BDB"/>
<stop offset="1" stop-color="#1F87FD"/>
</linearGradient>
<linearGradient id="paint1_linear_40000001_3405" x1="13.2846" y1="31.383" x2="13.2846" y2="0.923515" gradientUnits="userSpaceOnUse">
<stop stop-color="#0A6BDB"/>
<stop offset="1" stop-color="#1F87FD"/>
</linearGradient>
<linearGradient id="paint2_linear_40000001_3405" x1="8.22601" y1="31.0992" x2="8.22602" y2="2.80089" gradientUnits="userSpaceOnUse">
<stop stop-color="#0A6BDB"/>
<stop offset="1" stop-color="#1F87FD"/>
</linearGradient>
<linearGradient id="paint3_linear_40000001_3405" x1="10.22" y1="31.1533" x2="10.22" y2="1.01698" gradientUnits="userSpaceOnUse">
<stop stop-color="#0A6BDB"/>
<stop offset="1" stop-color="#1F87FD"/>
</linearGradient>
<linearGradient id="paint4_linear_40000001_3405" x1="17.0979" y1="30.8322" x2="17.0979" y2="5.26827" gradientUnits="userSpaceOnUse">
<stop stop-color="#0A6BDB"/>
<stop offset="1" stop-color="#1F87FD"/>
</linearGradient>
<linearGradient id="paint5_linear_40000001_3405" x1="18.2833" y1="30.7081" x2="18.2833" y2="2.67152" gradientUnits="userSpaceOnUse">
<stop stop-color="#0A6BDB"/>
<stop offset="1" stop-color="#1F87FD"/>
</linearGradient>
<linearGradient id="paint6_linear_40000001_3405" x1="19.7335" y1="31.0915" x2="19.7335" y2="1.94786" gradientUnits="userSpaceOnUse">
<stop stop-color="#0A6BDB"/>
<stop offset="1" stop-color="#1F87FD"/>
</linearGradient>
<linearGradient id="paint7_linear_40000001_3405" x1="13.5024" y1="31.339" x2="13.5024" y2="0.285276" gradientUnits="userSpaceOnUse">
<stop stop-color="#0A6BDB"/>
<stop offset="1" stop-color="#1F87FD"/>
</linearGradient>
<clipPath id="clip0_40000001_3405">
<rect width="138.26" height="31.896" fill="white"/>
</clipPath>
</defs>
</svg>
