<svg width="20" height="20" viewBox="0 0 20 20" fill="none" xmlns="http://www.w3.org/2000/svg">
<path d="M12.8975 10.742L14.16 17.847C14.1741 17.9307 14.1624 18.0166 14.1264 18.0935C14.0903 18.1703 14.0317 18.2342 13.9583 18.2768C13.8849 18.3194 13.8002 18.3386 13.7157 18.3317C13.6311 18.3249 13.5506 18.2925 13.485 18.2387L10.5017 15.9995C10.3576 15.8919 10.1827 15.8338 10.0029 15.8338C9.82314 15.8338 9.64819 15.8919 9.50417 15.9995L6.51583 18.2378C6.45027 18.2915 6.36989 18.3239 6.28541 18.3308C6.20094 18.3376 6.11639 18.3185 6.04305 18.276C5.96971 18.2336 5.91106 18.1698 5.87493 18.0931C5.8388 18.0164 5.82691 17.9306 5.84083 17.847L7.1025 10.742M15 6.66699C15 9.42842 12.7614 11.667 10 11.667C7.23858 11.667 5 9.42842 5 6.66699C5 3.90557 7.23858 1.66699 10 1.66699C12.7614 1.66699 15 3.90557 15 6.66699Z" stroke="#3574E3" stroke-width="1.5" stroke-linecap="round" stroke-linejoin="round"/>
</svg>
