<svg width="20" height="20" viewBox="0 0 20 20" fill="none" xmlns="http://www.w3.org/2000/svg">
<path d="M8.84533 15.9997C8.96236 16.2023 9.13067 16.3706 9.33336 16.4877C9.53604 16.6047 9.76596 16.6663 9.99999 16.6663C10.234 16.6663 10.4639 16.6047 10.6666 16.4877C10.8693 16.3706 11.0376 16.2023 11.1547 15.9997M4.17467 12.217C4.08758 12.3125 4.0301 12.4312 4.00924 12.5587C3.98837 12.6862 4.00501 12.817 4.05714 12.9353C4.10926 13.0535 4.19462 13.154 4.30284 13.2246C4.41105 13.2953 4.53745 13.3329 4.66667 13.333H15.3333C15.4625 13.333 15.5889 13.2955 15.6972 13.2251C15.8055 13.1546 15.891 13.0542 15.9432 12.936C15.9955 12.8179 16.0123 12.6871 15.9916 12.5595C15.9709 12.432 15.9136 12.3132 15.8267 12.2177C14.94 11.3037 14 10.3323 14 7.333C14 6.27214 13.5786 5.25472 12.8284 4.50458C12.0783 3.75443 11.0609 3.33301 9.99999 3.33301C8.93913 3.33301 7.92172 3.75443 7.17157 4.50458C6.42143 5.25472 6 6.27214 6 7.333C6 10.3323 5.05933 11.3037 4.17467 12.217Z" stroke="#3574E3" stroke-width="1.5" stroke-linecap="round" stroke-linejoin="round"/>
</svg>
