<svg width="18" height="18" viewBox="0 0 18 18" fill="none" xmlns="http://www.w3.org/2000/svg">
<ellipse cx="2.90909" cy="2.90909" rx="2.90909" ry="2.90909" transform="matrix(-1 0 0 1 10.1816 2.18164)" stroke="#3574E3" stroke-width="1.5"/>
<path d="M2.18164 12.3157C2.18164 11.69 2.57499 11.1318 3.16425 10.9214C5.82094 9.97253 8.72416 9.97253 11.3808 10.9214C11.9701 11.1318 12.3635 11.69 12.3635 12.3157V13.2724C12.3635 14.136 11.5986 14.7994 10.7437 14.6772L10.4586 14.6365C8.34531 14.3346 6.19979 14.3346 4.08646 14.6365L3.80143 14.6772C2.94652 14.7994 2.18164 14.136 2.18164 13.2724V12.3157Z" stroke="#3574E3" stroke-width="1.5"/>
<path d="M12.3634 8H15.2725" stroke="#3574E3" stroke-width="1.5" stroke-linecap="round" stroke-linejoin="round"/>
<path d="M13.8179 6.54501L13.8179 9.4541" stroke="#3574E3" stroke-width="1.5" stroke-linecap="round" stroke-linejoin="round"/>
</svg>
