<svg width="22" height="22" viewBox="0 0 22 22" fill="none" xmlns="http://www.w3.org/2000/svg">
<path d="M16.6393 11.6449L16.0894 11.1349L16.6393 11.6449ZM10.2111 5.21665L10.7211 5.76655L10.2111 5.21665ZM19.6915 3.88437L20.4352 3.98163L19.6915 3.88437ZM17.9716 2.1645L18.0689 2.90817L18.0689 2.90817L17.9716 2.1645ZM5.90373 11.501L6.57715 11.8311L6.57715 11.8311L5.90373 11.501ZM10.355 15.9523L10.0249 15.2788L10.0249 15.2788L10.355 15.9523ZM7.52733 9.18606C7.23444 8.89316 6.75957 8.89316 6.46667 9.18606C6.17378 9.47895 6.17378 9.95382 6.46667 10.2467L6.997 9.71639L7.52733 9.18606ZM11.6093 15.3893C11.9022 15.6822 12.377 15.6822 12.6699 15.3893C12.9628 15.0964 12.9628 14.6215 12.6699 14.3287L12.1396 14.859L11.6093 15.3893ZM5.92027 16.9964C6.21317 16.7035 6.21317 16.2286 5.92027 15.9357C5.62738 15.6428 5.15251 15.6428 4.85961 15.9357L5.38994 16.466L5.92027 16.9964ZM2.28832 18.507C1.99542 18.7999 1.99542 19.2748 2.28832 19.5677C2.58121 19.8606 3.05608 19.8606 3.34898 19.5677L2.81865 19.0373L2.28832 18.507ZM3.9918 15.0679C4.28469 14.775 4.28469 14.3001 3.9918 14.0072C3.69891 13.7143 3.22403 13.7143 2.93114 14.0072L3.46147 14.5376L3.9918 15.0679ZM1.64549 15.2929C1.3526 15.5858 1.3526 16.0607 1.64549 16.3535C1.93838 16.6464 2.41326 16.6464 2.70615 16.3535L2.17582 15.8232L1.64549 15.2929ZM7.84874 18.9248C8.14164 18.632 8.14164 18.1571 7.84874 17.8642C7.55585 17.5713 7.08098 17.5713 6.78808 17.8642L7.31841 18.3945L7.84874 18.9248ZM5.50244 19.1498C5.20954 19.4427 5.20954 19.9176 5.50244 20.2105C5.79533 20.5034 6.2702 20.5034 6.5631 20.2105L6.03277 19.6802L5.50244 19.1498ZM9.63258 19.1659L10.375 19.0598L10.375 19.0598L9.63258 19.1659ZM14.3252 16.0161L15.0677 15.91L15.0677 15.91L14.3252 16.0161ZM2.69006 12.2234L2.79613 11.481L2.79613 11.481L2.69006 12.2234ZM5.8399 7.5308L5.73383 8.27327L5.73383 8.27327L5.8399 7.5308ZM8.3815 15.6007L8.91183 15.0704L6.7856 12.9442L6.25527 13.4745L5.72494 14.0048L7.85117 16.1311L8.3815 15.6007ZM16.6393 11.6449L16.0894 11.1349C14.3772 12.9811 11.5921 14.5105 10.0249 15.2788L10.355 15.9523L10.6851 16.6257C12.2679 15.8498 15.274 14.22 17.1892 12.1549L16.6393 11.6449ZM5.90373 11.501L6.57715 11.8311C7.34548 10.2639 8.87493 7.47882 10.7211 5.76655L10.2111 5.21665L9.70108 4.66676C7.63602 6.58203 6.00623 9.58812 5.2303 11.1708L5.90373 11.501ZM19.6915 3.88437L18.9478 3.78711C18.6718 5.89762 17.9397 9.13995 16.0894 11.1349L16.6393 11.6449L17.1892 12.1549C19.3826 9.79005 20.1545 6.1278 20.4352 3.98163L19.6915 3.88437ZM10.2111 5.21665L10.7211 5.76655C12.716 3.91632 15.9584 3.18419 18.0689 2.90817L17.9716 2.1645L17.8744 1.42083C15.7282 1.70152 12.0659 2.47343 9.70108 4.66676L10.2111 5.21665ZM19.6915 3.88437L20.4352 3.98163C20.6328 2.47007 19.3859 1.22314 17.8744 1.42083L17.9716 2.1645L18.0689 2.90817C18.6035 2.83824 19.0177 3.25246 18.9478 3.78711L19.6915 3.88437ZM6.25527 13.4745L6.7856 12.9442C6.47474 12.6333 6.4014 12.1896 6.57715 11.8311L5.90373 11.501L5.2303 11.1708C4.75468 12.141 4.98946 13.2693 5.72494 14.0048L6.25527 13.4745ZM8.3815 15.6007L7.85117 16.1311C8.58664 16.8665 9.71497 17.1013 10.6851 16.6257L10.355 15.9523L10.0249 15.2788C9.66636 15.4546 9.22269 15.3813 8.91183 15.0704L8.3815 15.6007ZM6.997 9.71639L6.46667 10.2467L11.6093 15.3893L12.1396 14.859L12.6699 14.3287L7.52733 9.18606L6.997 9.71639ZM5.38994 16.466L4.85961 15.9357L2.28832 18.507L2.81865 19.0373L3.34898 19.5677L5.92027 16.9964L5.38994 16.466ZM3.46147 14.5376L2.93114 14.0072L1.64549 15.2929L2.17582 15.8232L2.70615 16.3535L3.9918 15.0679L3.46147 14.5376ZM7.31841 18.3945L6.78808 17.8642L5.50244 19.1498L6.03277 19.6802L6.5631 20.2105L7.84874 18.9248L7.31841 18.3945ZM12.461 6.82368L11.9307 6.29335C10.9277 7.29629 10.9277 8.92237 11.9307 9.92531L12.461 9.39498L12.9913 8.86465C12.5742 8.44749 12.5742 7.77116 12.9913 7.35401L12.461 6.82368ZM12.461 9.39498L11.9307 9.92531C12.9336 10.9282 14.5597 10.9282 15.5626 9.92531L15.0323 9.39498L14.502 8.86465C14.0848 9.2818 13.4085 9.2818 12.9913 8.86465L12.461 9.39498ZM15.0323 9.39498L15.5626 9.92531C16.5656 8.92237 16.5656 7.29629 15.5626 6.29335L15.0323 6.82368L14.502 7.35401C14.9191 7.77116 14.9191 8.44749 14.502 8.86465L15.0323 9.39498ZM15.0323 6.82368L15.5626 6.29335C14.5597 5.29041 12.9336 5.29041 11.9307 6.29335L12.461 6.82368L12.9913 7.35401C13.4085 6.93686 14.0848 6.93686 14.502 7.35401L15.0323 6.82368ZM14.0681 16.7875L13.5377 16.2571L10.645 19.1498L11.1754 19.6802L11.7057 20.2105L14.5984 17.3178L14.0681 16.7875ZM9.63258 19.1659L10.375 19.0598L9.98935 16.36L9.24689 16.466L8.50443 16.5721L8.89012 19.272L9.63258 19.1659ZM14.0681 14.2162L13.3256 14.3222L13.5827 16.1221L14.3252 16.0161L15.0677 15.91L14.8105 14.1101L14.0681 14.2162ZM11.1754 19.6802L10.645 19.1498C10.5523 19.2425 10.3936 19.1896 10.375 19.0598L9.63258 19.1659L8.89012 19.272C9.08347 20.6254 10.739 21.1772 11.7057 20.2105L11.1754 19.6802ZM14.0681 16.7875L14.5984 17.3178C14.9677 16.9485 15.1415 16.427 15.0677 15.91L14.3252 16.0161L13.5827 16.1221C13.5898 16.1717 13.5731 16.2217 13.5377 16.2571L14.0681 16.7875ZM5.06851 7.78793L4.53818 7.2576L1.64547 10.1503L2.1758 10.6806L2.70613 11.211L5.59884 8.31826L5.06851 7.78793ZM2.69006 12.2234L2.584 12.9659L5.28386 13.3516L5.38992 12.6091L5.49599 11.8667L2.79613 11.481L2.69006 12.2234ZM7.63981 7.78793L7.74587 7.04547L5.94597 6.78834L5.8399 7.5308L5.73383 8.27327L7.53374 8.5304L7.63981 7.78793ZM2.1758 10.6806L1.64547 10.1503C0.678739 11.117 1.23057 12.7725 2.584 12.9659L2.69006 12.2234L2.79613 11.481C2.66635 11.4624 2.61343 11.3037 2.70613 11.211L2.1758 10.6806ZM5.06851 7.78793L5.59884 8.31826C5.63425 8.28286 5.68426 8.26618 5.73383 8.27327L5.8399 7.5308L5.94597 6.78834C5.429 6.71449 4.90744 6.88835 4.53818 7.2576L5.06851 7.78793Z" fill="#3574E3"/>
</svg>
