<svg width="12" height="14" viewBox="0 0 12 14" fill="none" xmlns="http://www.w3.org/2000/svg">
<path d="M10.9318 2.56818C10.9318 3.57234 8.65254 4.38636 5.84091 4.38636C3.02928 4.38636 0.75 3.57234 0.75 2.56818M10.9318 2.56818C10.9318 1.56403 8.65254 0.75 5.84091 0.75C3.02928 0.75 0.75 1.56403 0.75 2.56818M10.9318 2.56818V11.2955C10.9318 12.2996 8.65254 13.1136 5.84091 13.1136C3.02928 13.1136 0.75 12.2996 0.75 11.2955V2.56818M10.9318 5.47727C10.9318 6.48143 8.65254 7.29545 5.84091 7.29545C3.02928 7.29545 0.75 6.48143 0.75 5.47727M10.9318 8.38636C10.9318 9.39052 8.65254 10.2045 5.84091 10.2045C3.02928 10.2045 0.75 9.39052 0.75 8.38636" stroke="#3574E3" stroke-width="1.5"/>
</svg>
