<svg width="20" height="20" viewBox="0 0 20 20" fill="none" xmlns="http://www.w3.org/2000/svg">
<circle cx="2.5" cy="2.5" r="2.5" transform="matrix(-1 0 0 1 12.5 7.5)" stroke="#3574E3" stroke-width="1.5"/>
<path d="M10 1.66699L10 0.916992L9.99998 0.916992L10 1.66699ZM13.75 4.11426L13.375 4.76375L13.375 4.76378L13.75 4.11426ZM13.75 15.8848L13.3751 15.2352L13.375 15.2352L13.75 15.8848ZM10 18.333L9.99998 19.083H10V18.333ZM6.25 15.8848L6.625 15.2352L6.62497 15.2352L6.25 15.8848ZM6.25 4.11426L6.625 4.76378L6.62505 4.76375L6.25 4.11426ZM7.40995 2.6041L6.68589 2.40859L7.40995 2.6041ZM2.50608 8.14317L3.00779 7.58569L2.50608 8.14317ZM4.52102 15.5982L4.37599 14.8624L4.52102 15.5982ZM3.61296 15.3492L4.18778 14.8675L3.61296 15.3492ZM8.03623 18.0997L7.85989 18.8286L8.03623 18.0997ZM7.40989 17.3951L6.68583 17.5907L7.40989 17.3951ZM11.9624 18.1006L12.1384 18.8296L11.9624 18.1006ZM16.3871 15.3493L16.9618 15.8311L16.3871 15.3493ZM15.479 15.5982L15.624 14.8624L15.479 15.5982ZM17.8319 7.15351L17.127 7.4097L17.8319 7.15351ZM17.4948 8.14316L16.9931 7.58565L17.4948 8.14316ZM2.16882 12.8453L1.46384 13.1012L2.16882 12.8453ZM2.50595 11.856L2.00436 11.2984L2.50595 11.856ZM15.4782 4.40069L15.6233 5.13653L15.4782 4.40069ZM17.4949 11.856L17.9965 11.2984L17.4949 11.856ZM12.5891 2.60349L11.865 2.79909L12.5891 2.60349ZM10 1.66699V2.41699C10.6164 2.41699 11.2146 2.48992 11.7865 2.6277L11.9622 1.89856L12.1378 1.16943C11.4512 1.00401 10.7351 0.916992 10 0.916992V1.66699ZM12.5891 2.60349L11.865 2.79909C12.0807 3.59737 12.6003 4.31646 13.375 4.76375L13.75 4.11426L14.125 3.46476C13.7086 3.22431 13.4298 2.83979 13.3131 2.4079L12.5891 2.60349ZM13.75 4.11426L13.375 4.76378C14.083 5.17254 14.8813 5.2828 15.6233 5.13653L15.4782 4.40069L15.3332 3.66485C14.9322 3.74389 14.5055 3.6844 14.125 3.46474L13.75 4.11426ZM16.386 4.6495L15.8114 5.13149C16.3743 5.8026 16.8225 6.57176 17.127 7.4097L17.8319 7.15351L18.5368 6.89733C18.1715 5.89212 17.6343 4.97059 16.9606 4.16751L16.386 4.6495ZM17.4948 8.14316L16.9931 7.58565C16.3339 8.17889 15.917 9.04076 15.917 10H16.667H17.417C17.417 9.48428 17.6395 9.02188 17.9965 8.70067L17.4948 8.14316ZM16.667 10H15.917C15.917 10.9594 16.3342 11.8207 16.9934 12.4136L17.4949 11.856L17.9965 11.2984C17.6394 10.9772 17.417 10.5154 17.417 10H16.667ZM17.8321 12.8454L17.1271 12.5893C16.8228 13.4272 16.375 14.1963 15.8124 14.8674L16.3871 15.3493L16.9618 15.8311C17.6352 15.028 18.172 14.1065 18.537 13.1014L17.8321 12.8454ZM15.479 15.5982L15.624 14.8624C14.8818 14.7161 14.0831 14.8265 13.3751 15.2352L13.75 15.8848L14.1249 16.5343C14.5056 16.3146 14.9328 16.255 15.334 16.3341L15.479 15.5982ZM13.75 15.8848L13.375 15.2352C12.6002 15.6825 12.0807 16.402 11.8651 17.2001L12.5891 17.3957L13.3132 17.5914C13.4299 17.1592 13.7088 16.7746 14.125 16.5343L13.75 15.8848ZM11.9624 18.1006L11.7864 17.3715C11.2143 17.5096 10.6161 17.583 10 17.583V18.333V19.083C10.7357 19.083 11.4519 18.9953 12.1384 18.8296L11.9624 18.1006ZM10 18.333L10 17.583C9.38355 17.583 8.78519 17.5092 8.21257 17.3707L8.03623 18.0997L7.85989 18.8286C8.54669 18.9948 9.26339 19.083 9.99998 19.083L10 18.333ZM7.40989 17.3951L8.13395 17.1996C7.91853 16.4019 7.39979 15.6826 6.625 15.2352L6.25 15.8848L5.875 16.5343C6.29072 16.7743 6.56912 17.1585 6.68583 17.5907L7.40989 17.3951ZM6.25 15.8848L6.62497 15.2352C5.91692 14.8265 5.11818 14.7161 4.37599 14.8624L4.52102 15.5982L4.66605 16.3341C5.06722 16.255 5.49443 16.3146 5.87503 16.5343L6.25 15.8848ZM3.61296 15.3492L4.18778 14.8675C3.62548 14.1965 3.17803 13.4273 2.8738 12.5893L2.16882 12.8453L1.46384 13.1012C1.82866 14.1061 2.36496 15.0277 3.03814 15.831L3.61296 15.3492ZM2.50595 11.856L3.00753 12.4136C3.66659 11.8207 4.08398 10.9594 4.08398 10H3.33398H2.58398C2.58398 10.5152 2.36148 10.9771 2.00436 11.2984L2.50595 11.856ZM3.33398 10H4.08398C4.08398 9.04075 3.66693 8.17889 3.00779 7.58569L2.50608 8.14317L2.00437 8.70065C2.36142 9.02198 2.58398 9.48446 2.58398 10H3.33398ZM2.16893 7.15357L2.87389 7.40957C3.17818 6.57161 3.62556 5.80236 4.18775 5.13156L3.61293 4.64981L3.03811 4.16806C2.36496 4.97126 1.8288 5.89292 1.46398 6.89758L2.16893 7.15357ZM4.52101 4.40087L4.37591 5.1367C5.11821 5.28308 5.91689 5.1726 6.625 4.76378L6.25 4.11426L5.875 3.46474C5.49427 3.68455 5.06718 3.74413 4.66612 3.66504L4.52101 4.40087ZM6.25 4.11426L6.62505 4.76375C7.39968 4.31644 7.9186 3.59742 8.13402 2.79961L7.40995 2.6041L6.68589 2.40859C6.56927 2.84045 6.29091 3.22457 5.87495 3.46477L6.25 4.11426ZM8.03645 1.89945L8.21246 2.6285C8.78481 2.49031 9.38328 2.41701 10 2.41699L10 1.66699L9.99998 0.916992C9.26399 0.917016 8.54737 1.00454 7.86043 1.17039L8.03645 1.89945ZM7.40995 2.6041L8.13402 2.79961C8.15507 2.72164 8.18593 2.66769 8.20938 2.63955C8.22952 2.61539 8.23134 2.62394 8.21246 2.6285L8.03645 1.89945L7.86043 1.17039C7.15918 1.3397 6.81102 1.94517 6.68589 2.40859L7.40995 2.6041ZM2.50608 8.14317L3.00779 7.58569C2.9393 7.52405 2.89975 7.46127 2.88393 7.41978C2.87058 7.38476 2.88139 7.38893 2.87389 7.40957L2.16893 7.15357L1.46398 6.89758C1.18544 7.66463 1.61132 8.34692 2.00437 8.70065L2.50608 8.14317ZM4.52102 15.5982L4.37599 14.8624C4.29696 14.878 4.23507 14.8742 4.19948 14.8656C4.16888 14.8583 4.17549 14.8528 4.18778 14.8675L3.61296 15.3492L3.03814 15.831C3.50035 16.3825 4.19549 16.4268 4.66605 16.3341L4.52102 15.5982ZM8.03623 18.0997L8.21257 17.3707C8.23133 17.3752 8.22943 17.3837 8.20928 17.3595C8.18582 17.3314 8.15498 17.2775 8.13395 17.1996L7.40989 17.3951L6.68583 17.5907C6.811 18.0542 7.15915 18.6591 7.85989 18.8286L8.03623 18.0997ZM12.5891 17.3957L11.8651 17.2001C11.844 17.2781 11.8131 17.3321 11.7896 17.3603C11.7694 17.3846 11.7675 17.376 11.7864 17.3715L11.9624 18.1006L12.1384 18.8296C12.8397 18.6603 13.1879 18.0548 13.3132 17.5914L12.5891 17.3957ZM16.3871 15.3493L15.8124 14.8674C15.8246 14.8528 15.8312 14.8583 15.8006 14.8656C15.765 14.8742 15.7031 14.8779 15.624 14.8624L15.479 15.5982L15.334 16.3341C15.8045 16.4268 16.4996 16.3825 16.9618 15.8311L16.3871 15.3493ZM17.8319 7.15351L17.127 7.4097C17.1195 7.38898 17.1303 7.38473 17.117 7.41972C17.1012 7.4612 17.0616 7.52399 16.9931 7.58565L17.4948 8.14316L17.9965 8.70067C18.3895 8.34701 18.8157 7.66456 18.5368 6.89733L17.8319 7.15351ZM2.16882 12.8453L2.8738 12.5893C2.88129 12.61 2.87049 12.6142 2.88381 12.5792C2.8996 12.5378 2.93911 12.4751 3.00753 12.4136L2.50595 11.856L2.00436 11.2984C1.61115 11.6521 1.1854 12.3343 1.46384 13.1012L2.16882 12.8453ZM15.4782 4.40069L15.6233 5.13653C15.7023 5.12096 15.7641 5.12472 15.7996 5.13326C15.8302 5.14061 15.8237 5.14611 15.8114 5.13149L16.386 4.6495L16.9606 4.16751C16.4984 3.61649 15.8037 3.57209 15.3332 3.66485L15.4782 4.40069ZM3.61293 4.64981L4.18775 5.13156C4.17544 5.14625 4.1688 5.14077 4.19939 5.13342C4.23498 5.12487 4.29687 5.12111 4.37591 5.1367L4.52101 4.40087L4.66612 3.66504C4.19559 3.57226 3.50038 3.61649 3.03811 4.16806L3.61293 4.64981ZM17.4949 11.856L16.9934 12.4136C17.0618 12.4752 17.1013 12.5379 17.1171 12.5793C17.1304 12.6142 17.1196 12.61 17.1271 12.5893L17.8321 12.8454L18.537 13.1014C18.8156 12.3343 18.3897 11.652 17.9965 11.2984L17.4949 11.856ZM11.9622 1.89856L11.7865 2.6277C11.7675 2.62313 11.7693 2.61453 11.7895 2.63873C11.813 2.66692 11.8439 2.72097 11.865 2.79909L12.5891 2.60349L13.3131 2.4079C13.1879 1.94456 12.8397 1.33852 12.1378 1.16943L11.9622 1.89856Z" fill="#3574E3"/>
</svg>
