<svg width="20" height="20" viewBox="0 0 20 20" fill="none" xmlns="http://www.w3.org/2000/svg">
<path d="M17.5013 10.4412C17.5013 10.027 17.1656 9.69118 16.7513 9.69118C16.3371 9.69118 16.0013 10.027 16.0013 10.4412H16.7513H17.5013ZM9.62567 4.13235C10.0399 4.13235 10.3757 3.79657 10.3757 3.38235C10.3757 2.96814 10.0399 2.63235 9.62567 2.63235V3.38235V4.13235ZM13.9385 10.4412C13.9385 10.027 13.6027 9.69118 13.1885 9.69118C12.7743 9.69118 12.4385 10.027 12.4385 10.4412H13.1885H13.9385ZM9.62567 7.66176C10.0399 7.66176 10.3757 7.32598 10.3757 6.91176C10.3757 6.49755 10.0399 6.16176 9.62567 6.16176V6.91176V7.66176ZM13.3026 7.71214C13.5969 7.42063 13.5991 6.94576 13.3076 6.65149C13.0161 6.35722 12.5412 6.35498 12.247 6.64649L12.7748 7.17931L13.3026 7.71214ZM9.09784 9.76608C8.80357 10.0576 8.80134 10.5325 9.09285 10.8267C9.38436 11.121 9.85922 11.1232 10.1535 10.8317L9.62567 10.2989L9.09784 9.76608ZM17.5 4.99567L18.0278 5.52849C18.2302 5.328 18.3015 5.03014 18.2119 4.75971C18.1223 4.48928 17.8872 4.29299 17.6051 4.25307L17.5 4.99567ZM14.6658 7.8033L14.4306 8.51548C14.6984 8.60392 14.9932 8.53462 15.1936 8.33612L14.6658 7.8033ZM12.1465 5.30763L11.6187 4.77481C11.4154 4.97617 11.3444 5.27564 11.4356 5.54682L12.1465 5.30763ZM14.9807 2.5L15.723 2.39295C15.6826 2.11259 15.4876 1.87892 15.2191 1.78889C14.9505 1.69886 14.6541 1.76783 14.4529 1.96718L14.9807 2.5ZM12.7763 7.17938L12.0655 7.41857C12.1408 7.64231 12.317 7.81754 12.5411 7.89156L12.7763 7.17938ZM15.2956 4.68371L14.5533 4.79076C14.6009 5.12068 14.8605 5.37961 15.1905 5.42631L15.2956 4.68371ZM16.7513 10.4412H16.0013C16.0013 13.9188 13.1535 16.75 9.62567 16.75V17.5V18.25C13.9686 18.25 17.5013 14.7605 17.5013 10.4412H16.7513ZM9.62567 17.5V16.75C6.0978 16.75 3.25 13.9188 3.25 10.4412H2.5H1.75C1.75 14.7605 5.28274 18.25 9.62567 18.25V17.5ZM2.5 10.4412H3.25C3.25 6.96356 6.0978 4.13235 9.62567 4.13235V3.38235V2.63235C5.28274 2.63235 1.75 6.12183 1.75 10.4412H2.5ZM13.1885 10.4412H12.4385C12.4385 11.9696 11.1858 13.2206 9.62567 13.2206V13.9706V14.7206C12.0009 14.7206 13.9385 12.8113 13.9385 10.4412H13.1885ZM9.62567 13.9706V13.2206C8.0655 13.2206 6.81283 11.9696 6.81283 10.4412H6.06283H5.31283C5.31283 12.8113 7.25044 14.7206 9.62567 14.7206V13.9706ZM6.06283 10.4412H6.81283C6.81283 8.9128 8.0655 7.66176 9.62567 7.66176V6.91176V6.16176C7.25044 6.16176 5.31283 8.07107 5.31283 10.4412H6.06283ZM12.7748 7.17931L12.247 6.64649L9.09784 9.76608L9.62567 10.2989L10.1535 10.8317L13.3026 7.71214L12.7748 7.17931ZM17.5 4.99567L16.9722 4.46285L14.138 7.27048L14.6658 7.8033L15.1936 8.33612L18.0278 5.52849L17.5 4.99567ZM12.1465 5.30763L12.6743 5.84045L15.5085 3.03282L14.9807 2.5L14.4529 1.96718L11.6187 4.77481L12.1465 5.30763ZM14.6658 7.8033L14.9009 7.09112L13.0115 6.46721L12.7763 7.17938L12.5411 7.89156L14.4306 8.51548L14.6658 7.8033ZM12.7763 7.17938L13.4871 6.94019L12.8573 5.06844L12.1465 5.30763L11.4356 5.54682L12.0655 7.41857L12.7763 7.17938ZM14.9807 2.5L14.2384 2.60705L14.5533 4.79076L15.2956 4.68371L16.0379 4.57666L15.723 2.39295L14.9807 2.5ZM15.2956 4.68371L15.1905 5.42631L17.3949 5.73827L17.5 4.99567L17.6051 4.25307L15.4007 3.94111L15.2956 4.68371Z" fill="#3574E3"/>
</svg>
